<?xml version="1.0" encoding="UTF-8" standalone="no"?>
<!-- Created with Inkscape (http://www.inkscape.org/) -->

<svg
   xmlns:dc="http://purl.org/dc/elements/1.1/"
   xmlns:cc="http://creativecommons.org/ns#"
   xmlns:rdf="http://www.w3.org/1999/02/22-rdf-syntax-ns#"
   xmlns:svg="http://www.w3.org/2000/svg"
   xmlns="http://www.w3.org/2000/svg"
   version="1.1"
   width="2560"
   height="1920"
   id="svg2997">
  <defs
     id="defs2999" />
  <metadata
     id="metadata3002">
    <rdf:RDF>
      <cc:Work
         rdf:about="">
        <dc:format>image/svg+xml</dc:format>
        <dc:type
           rdf:resource="http://purl.org/dc/dcmitype/StillImage" />
        <dc:title></dc:title>
      </cc:Work>
    </rdf:RDF>
  </metadata>
  <g
     transform="translate(0,867.63782)"
     id="layer1">
    <path
       d="m 0,1920 50,-225 150,-50 100,25 100,75 125,-125 75,-50 -50,-175 -200,-75 -175,50 -75,-75 0,-225 225,-150 125,-125 75,-100 200,0 150,50 75,175 100,100 125,100 0,150 -100,125 -100,125 150,25 100,125 0,150 -75,100 -1125,0 z"
       transform="translate(0,-867.63782)"
       id="path3007"
       style="fill:none;stroke:#000000;stroke-width:1px;stroke-linecap:butt;stroke-linejoin:miter;stroke-opacity:1" />
    <path
       d="m 1400,1920 -75,-250 200,-175 -100,-150 50,-225 200,-225 250,-50 275,-25 150,75 150,150 25,125 0,175 -250,150 175,75 75,225 -150,50 0,75 z"
       transform="translate(0,-867.63782)"
       id="path3009"
       style="fill:none;stroke:#000000;stroke-width:1px;stroke-linecap:butt;stroke-linejoin:miter;stroke-opacity:1" />
  </g>
</svg>
