<?xml version="1.0" encoding="UTF-8" standalone="no"?>
<!-- Created with Inkscape (http://www.inkscape.org/) -->

<svg
   xmlns:dc="http://purl.org/dc/elements/1.1/"
   xmlns:cc="http://creativecommons.org/ns#"
   xmlns:rdf="http://www.w3.org/1999/02/22-rdf-syntax-ns#"
   xmlns:svg="http://www.w3.org/2000/svg"
   xmlns="http://www.w3.org/2000/svg"
   xmlns:sodipodi="http://sodipodi.sourceforge.net/DTD/sodipodi-0.dtd"
   xmlns:inkscape="http://www.inkscape.org/namespaces/inkscape"
   width="2560"
   height="1920"
   id="svg2"
   version="1.1"
   inkscape:version="0.48.2 r9819"
   sodipodi:docname="Maps.svg">
  <defs
     id="defs4" />
  <sodipodi:namedview
     id="base"
     pagecolor="#ffffff"
     bordercolor="#666666"
     borderopacity="1.0"
     inkscape:pageopacity="0.0"
     inkscape:pageshadow="2"
     inkscape:zoom="0.35"
     inkscape:cx="1389.2426"
     inkscape:cy="1238.9146"
     inkscape:document-units="px"
     inkscape:current-layer="svg2"
     showgrid="true"
     inkscape:window-width="1366"
     inkscape:window-height="705"
     inkscape:window-x="-8"
     inkscape:window-y="-8"
     inkscape:window-maximized="1">
    <inkscape:grid
       type="xygrid"
       id="grid2989"
       empspacing="5"
       visible="true"
       enabled="true"
       snapvisiblegridlinesonly="true"
       spacingx="5px"
       spacingy="5px" />
  </sodipodi:namedview>
  <metadata
     id="metadata7">
    <rdf:RDF>
      <cc:Work
         rdf:about="">
        <dc:format>image/svg+xml</dc:format>
        <dc:type
           rdf:resource="http://purl.org/dc/dcmitype/StillImage" />
        <dc:title></dc:title>
      </cc:Work>
    </rdf:RDF>
  </metadata>
  <g
     inkscape:label="Map1"
     inkscape:groupmode="layer"
     id="map1"
     transform="translate(0,867.63782)"
     sodipodi:insensitive="true"
     style="display:none">
    <path
       style="fill:none;stroke:#000000;stroke-width:1px;stroke-linecap:butt;stroke-linejoin:miter;stroke-opacity:1"
       d="m 0.5,1051.8622 25,-225.00004 75,-100 125,-50 50,-125 25,-125 75,-75 75,-25 100,-25 200,0 100,25 150,50 75,25 75,0 125,-50 50,-75 100,-75 125,-25 125,0 100,25 75,50 100,25 125,0 99.5,0.50002 50,50 100,0 100,25 50,100 50,175 25,225 0,200.00002 z"
       id="path2991"
       inkscape:connector-curvature="0"
       sodipodi:nodetypes="cccccccccccccccccccccccccccccccc" />
  </g>
  <g
     inkscape:groupmode="layer"
     id="map2"
     inkscape:label="Map2"
     style="display:none"
     sodipodi:insensitive="true">
    <path
       style="fill:none;stroke:#000000;stroke-width:1px;stroke-linecap:butt;stroke-linejoin:miter;stroke-opacity:1"
       d="m 0,1920 50,-225 150,-50 100,25 100,75 125,-125 75,-50 -50,-175 -200,-75 -175,50 -75,-75 0,-225 225,-150 125,-125 75,-100 200,0 150,50 75,175 100,100 125,100 0,150 -100,125 -100,125 150,25 100,125 0,150 -75,100 -1125,0 z"
       id="path3007"
       inkscape:connector-curvature="0" />
    <path
       style="fill:none;stroke:#000000;stroke-width:1px;stroke-linecap:butt;stroke-linejoin:miter;stroke-opacity:1"
       d="m 1400,1920 -75,-250 200,-175 -100,-150 50,-225 200,-225 250,-50 275,-25 150,75 150,150 25,125 0,175 -250,150 175,75 75,225 -150,50 0,75 z"
       id="path3009"
       inkscape:connector-curvature="0" />
  </g>
  <g
     inkscape:groupmode="layer"
     id="map3"
     inkscape:label="Map3">
    <path
       style="fill:none;stroke:#000000;stroke-width:1px;stroke-linecap:butt;stroke-linejoin:miter;stroke-opacity:1"
       d="m 0,745 300,0 75,50 75,125 225,25 100,0 125,-100 100,-225 225,-50 225,50 225,0 175,200 25,75 0,100 -25,100 -75,50 -100,25 -75,-50 -125,25 -50,75 0,100 50,100 150,25 300,50 200,100 75,75 0,250 -2200,0 z"
       id="path3046"
       inkscape:connector-curvature="0" />
    <path
       style="fill:none;stroke:#000000;stroke-width:1px;stroke-linecap:butt;stroke-linejoin:miter;stroke-opacity:1"
       d="m 1925,145 -100,25 -50,100 -25,125 50,125 125,75 50,100 75,75 175,100 125,25 125,0 50,-50 0,-500 -25,-100 -50,-50 -75,-50 z"
       id="path3048"
       inkscape:connector-curvature="0" />
  </g>
</svg>
